<?xml version="1.0" standalone="no"?>
<!DOCTYPE svg PUBLIC "-//W3C//DTD SVG 20010904//EN"
 "http://www.w3.org/TR/2001/REC-SVG-20010904/DTD/svg10.dtd">
<svg version="1.0" xmlns="http://www.w3.org/2000/svg"
 width="700.000000pt" height="700.000000pt" viewBox="0 0 700.000000 700.000000"
 preserveAspectRatio="xMidYMid meet">
<metadata>
Created by potrace 1.11, written by Peter Selinger 2001-2013
</metadata>
<g transform="translate(0.000000,700.000000) scale(0.100000,-0.100000)"
fill="#000000" stroke="none">
<path d="M3814 5737 l-219 -183 -2 -610 c-1 -335 -2 -622 -2 -637 -1 -26 -3
-28 -41 -25 -22 1 -39 7 -39 12 1 6 1 187 0 402 l-1 392 -272 -2 -273 -1 0
-242 0 -243 -30 -1 c-89 -2 -217 0 -221 4 -3 2 -6 254 -7 558 l-2 554 -151 2
-151 1 1 -235 c1 -129 -1 -239 -4 -244 -3 -5 -98 -10 -210 -11 l-205 -3 -2
-910 c-1 -500 -2 -918 -2 -927 -1 -15 -11 -18 -64 -18 l-64 0 2 -46 1 -46 105
0 c57 1 107 1 110 1 3 1 5 417 5 926 l-1 925 75 1 c41 0 137 1 212 1 l136 0
-1 244 c-2 211 0 244 13 245 105 4 100 5 100 -21 0 -14 2 -266 3 -560 l2 -535
220 0 220 0 1 238 c1 131 4 240 7 244 5 4 295 8 346 4 6 -1 9 -154 9 -378 0
-208 1 -388 1 -400 1 -23 3 -23 135 -23 l133 0 0 660 c0 363 2 662 4 663 2 2
71 59 154 128 82 68 159 131 170 141 23 18 10 27 254 -191 41 -36 83 -74 95
-84 30 -26 65 -57 128 -113 29 -27 83 -75 120 -107 l66 -58 0 -682 c1 -375 1
-696 1 -713 l1 -31 112 1 c67 1 116 -3 122 -10 7 -7 11 -95 10 -262 l-1 -252
44 -1 c23 0 57 -1 73 -1 17 0 55 1 85 1 l55 1 0 45 c0 50 3 49 -112 45 -42 -1
-48 1 -49 19 0 12 -1 130 -2 264 l-2 242 -105 2 c-58 1 -113 2 -122 2 -17 1
-18 41 -18 689 l0 687 -263 232 c-144 127 -271 240 -282 250 -55 50 -186 163
-189 163 -2 0 -102 -82 -222 -183z"/>
<path d="M1333 3068 c-184 -28 -331 -154 -385 -331 -43 -141 -24 -331 45 -446
90 -150 243 -234 428 -234 163 0 294 60 369 169 25 35 29 53 35 140 4 54 9
102 11 106 2 4 1 9 -4 12 -4 2 -13 -25 -20 -61 -40 -212 -182 -327 -398 -322
-179 4 -317 124 -368 319 -10 36 -14 94 -12 170 2 104 6 122 35 192 65 155
178 238 335 246 186 10 323 -77 371 -232 13 -43 15 -2 4 75 -6 46 -12 90 -12
97 0 18 -100 67 -173 86 -71 18 -190 25 -261 14z"/>
<path d="M3871 2917 c-6 -16 -11 -30 -11 -32 0 -5 -30 -71 -85 -190 -18 -38
-65 -140 -105 -225 -146 -316 -159 -340 -193 -360 -18 -11 -41 -20 -51 -20
-11 0 -16 -3 -12 -7 10 -10 256 -11 262 -1 3 4 -4 8 -15 8 -20 0 -51 34 -51
56 0 7 19 58 43 113 l42 101 176 0 177 0 41 -99 c22 -55 41 -108 41 -119 0
-20 -29 -52 -48 -52 -7 0 -12 -3 -12 -8 0 -4 63 -7 140 -7 134 0 172 6 112 18
-44 9 -74 47 -122 154 -24 54 -63 140 -87 191 -24 52 -43 95 -43 97 0 2 -16
38 -36 82 -20 43 -54 116 -75 163 -22 47 -48 103 -58 125 l-19 40 -11 -28z
m69 -292 c34 -82 68 -166 75 -186 l13 -36 -154 0 c-85 0 -154 3 -154 7 0 7 71
179 105 255 7 17 21 49 30 73 10 24 19 42 20 40 2 -2 31 -70 65 -153z"/>
<path d="M5985 2928 c-22 -5 -147 -11 -277 -11 -131 -1 -238 -5 -238 -9 0 -5
11 -8 25 -8 26 0 64 -30 66 -52 8 -63 5 -689 -3 -709 -9 -27 -44 -49 -76 -49
-11 0 -13 -3 -5 -8 6 -4 134 -7 284 -7 l273 0 39 99 c20 54 36 101 33 103 -2
3 -16 -16 -31 -41 -33 -57 -74 -92 -123 -106 -20 -5 -95 -10 -167 -10 l-130 0
1 168 c1 92 2 172 3 177 0 6 51 10 133 9 115 -1 133 -4 145 -20 7 -10 13 -26
13 -36 0 -10 4 -18 9 -18 5 0 9 43 9 95 0 52 -4 95 -9 95 -5 0 -9 -8 -9 -18 0
-10 -6 -26 -13 -36 -12 -16 -29 -19 -133 -18 -65 0 -126 0 -134 1 -13 1 -15
26 -14 169 1 92 2 170 3 175 0 4 73 7 160 7 159 0 160 0 180 -26 11 -14 18
-31 15 -39 -3 -7 -1 -16 5 -20 8 -4 11 20 11 74 0 45 -1 81 -2 80 -2 -1 -21
-6 -43 -11z"/>
<path d="M1980 2909 c0 -4 17 -9 38 -13 78 -12 76 -2 76 -401 0 -399 1 -389
-76 -401 -21 -4 -36 -9 -33 -13 9 -9 306 -8 311 1 3 5 -8 8 -25 8 -17 0 -42
10 -58 24 l-28 24 0 357 0 357 28 24 c17 14 41 24 59 24 17 0 28 3 24 8 -9 9
-316 10 -316 1z"/>
<path d="M2454 2908 c-3 -4 7 -8 21 -8 14 0 37 -11 51 -25 l25 -25 -3 -361 -3
-361 -24 -19 c-13 -10 -34 -19 -48 -19 -13 0 -22 -4 -19 -8 2 -4 132 -7 288
-6 263 1 288 3 348 23 174 59 268 186 276 372 8 218 -94 367 -291 425 -50 15
-105 18 -338 19 -153 0 -281 -3 -283 -7z m536 -42 c128 -18 235 -122 265 -257
13 -56 13 -171 0 -224 -23 -98 -89 -191 -164 -229 -63 -33 -192 -44 -428 -37
l-23 1 0 378 0 377 153 -1 c84 -1 173 -4 197 -8z"/>
<path d="M4424 2908 c-3 -4 7 -8 21 -8 14 0 37 -11 50 -25 l25 -24 0 -356 0
-356 -25 -24 c-13 -14 -36 -25 -50 -25 -14 0 -24 -4 -21 -8 2 -4 130 -7 283
-7 232 1 288 4 338 19 199 58 307 220 292 436 -13 183 -108 307 -280 362 -56
19 -91 21 -345 22 -156 1 -285 -1 -288 -6z m578 -52 c98 -28 167 -93 209 -196
29 -72 32 -227 6 -312 -33 -109 -140 -206 -247 -223 -30 -6 -186 -8 -317 -6
l-43 1 0 374 0 375 23 3 c67 9 319 -1 369 -16z"/>
<path d="M3445 1890 c-44 -44 -74 -80 -67 -80 13 0 141 62 179 87 l22 15 -21
29 c-12 16 -24 29 -28 29 -3 0 -41 -36 -85 -80z"/>
<path d="M387 1830 c32 -14 44 -26 50 -49 6 -24 10 -626 4 -714 -1 -25 -49
-70 -66 -63 -8 3 -17 1 -20 -4 -4 -6 46 -10 131 -10 129 0 159 4 103 15 -13 3
-32 14 -43 25 -19 18 -20 33 -21 192 l0 173 250 0 250 1 0 -174 -1 -174 -28
-25 c-17 -14 -37 -23 -47 -20 -11 3 -19 1 -19 -4 0 -5 62 -9 137 -9 75 0 134
3 131 6 -4 3 -12 7 -20 8 -29 5 -56 27 -65 53 -10 32 -10 685 0 725 6 24 53
61 73 57 3 0 8 2 12 5 3 3 -57 6 -133 6 -76 0 -135 -3 -131 -7 3 -4 17 -8 29
-10 12 -2 31 -13 42 -23 18 -19 20 -34 20 -198 l0 -177 -250 0 -250 0 0 169
c0 96 4 177 10 189 10 20 19 26 65 45 19 8 -9 11 -115 11 l-140 0 42 -19z"/>
<path d="M1906 1738 c-95 -20 -151 -86 -151 -179 0 -81 12 -95 225 -257 19
-15 53 -44 75 -64 37 -34 40 -40 40 -92 0 -46 -4 -59 -28 -84 -48 -50 -143
-66 -214 -37 -51 21 -91 82 -87 133 1 23 -13 30 -21 10 -3 -7 -7 -37 -9 -67
-3 -46 -1 -57 19 -77 51 -51 225 -66 301 -26 52 26 90 71 104 120 28 103 4
145 -156 268 -167 128 -184 147 -184 196 0 88 63 127 192 120 35 -2 88 -50 91
-79 1 -13 5 -23 10 -23 4 0 7 29 6 65 -2 52 -5 65 -18 66 -9 0 -25 2 -36 4
-47 9 -123 10 -159 3z"/>
<path d="M2250 1679 c0 -39 4 -69 10 -69 6 0 10 11 10 23 0 48 26 57 158 57
l122 0 0 -318 c0 -350 1 -346 -61 -368 -30 -11 -18 -13 100 -13 125 -1 156 3
101 14 -13 2 -31 12 -41 21 -18 16 -19 38 -19 341 l0 323 123 0 c107 0 126 -2
140 -18 10 -10 17 -28 17 -40 0 -12 4 -22 8 -22 5 0 9 31 9 69 l0 69 -31 -9
c-41 -12 -572 -12 -614 0 l-32 10 0 -70z"/>
<path d="M3313 1738 c-199 -31 -329 -165 -341 -353 -6 -102 13 -170 67 -247
133 -185 437 -221 618 -72 118 96 164 249 123 401 -38 137 -173 251 -321 268
-30 4 -63 8 -74 9 -11 1 -43 -1 -72 -6z m202 -62 c99 -45 168 -141 184 -256
25 -190 -64 -346 -229 -397 -58 -19 -164 -11 -222 16 -150 68 -224 260 -169
439 56 186 260 279 436 198z"/>
<path d="M5412 1738 c-226 -19 -356 -168 -347 -396 6 -158 72 -266 198 -326
141 -66 325 -54 455 31 70 47 89 76 91 144 1 31 4 69 7 84 2 15 1 24 -4 21 -5
-3 -12 -26 -16 -52 -11 -86 -71 -159 -164 -202 -48 -22 -72 -26 -152 -26 -88
-1 -100 1 -160 31 -130 65 -194 223 -161 397 31 167 140 259 306 259 143 1
241 -52 284 -153 22 -52 37 -67 28 -27 -3 12 -9 49 -13 82 -7 69 -15 76 -99
104 -86 29 -158 37 -253 29z"/>
<path d="M6255 1713 c-7 -28 -12 -40 -85 -198 -23 -49 -53 -115 -67 -145 -14
-30 -56 -119 -94 -198 -65 -136 -70 -143 -111 -162 l-43 -20 118 0 c78 0 116
3 112 10 -4 6 -10 8 -15 5 -8 -5 -24 11 -32 35 -3 9 11 56 32 105 l37 90 155
2 155 3 32 -76 c50 -120 50 -138 1 -161 -20 -10 -2 -12 103 -12 84 -1 126 2
122 9 -4 6 -10 8 -15 5 -5 -3 -23 7 -40 22 -22 21 -71 118 -184 368 -85 186
-158 341 -164 343 -5 1 -13 -10 -17 -25z m80 -268 c35 -87 62 -161 60 -164 -7
-7 -256 -7 -261 1 -4 6 55 154 76 190 5 10 10 22 10 27 0 12 44 111 47 107 2
-1 32 -74 68 -161z"/>
<path d="M1326 1719 c3 -5 15 -9 28 -9 12 0 32 -9 44 -20 21 -20 22 -29 23
-213 1 -408 0 -430 -19 -449 -9 -9 -30 -19 -46 -22 -63 -11 -32 -16 104 -16
79 0 141 3 138 6 -5 5 -28 11 -50 13 -5 1 -17 10 -28 21 -19 19 -20 33 -20
324 0 292 1 304 21 330 12 15 30 26 44 26 13 0 26 4 29 8 3 5 -58 9 -134 9
-77 0 -137 -3 -134 -8z"/>
<path d="M3920 1719 c0 -5 8 -9 18 -9 11 0 26 -8 35 -18 15 -16 17 -55 17
-334 0 -296 -1 -316 -19 -332 -10 -9 -32 -21 -47 -26 -20 -6 14 -9 105 -9 125
-1 156 3 101 14 -13 2 -31 12 -41 21 -18 16 -19 38 -19 342 l0 324 94 -4 c110
-6 160 -26 188 -78 23 -43 24 -120 2 -166 -30 -62 -74 -81 -204 -83 l-45 -1
40 -19 c46 -21 85 -62 172 -184 92 -128 164 -172 271 -165 44 3 45 4 17 11
-16 5 -41 14 -55 22 -23 12 -102 99 -168 184 -15 19 -44 54 -65 77 l-37 42 33
6 c43 8 103 58 127 107 25 47 26 128 4 172 -22 42 -49 65 -104 90 -40 18 -68
21 -232 23 -106 1 -188 -2 -188 -7z"/>
<path d="M4685 1719 c4 -5 14 -9 24 -9 11 0 29 -8 41 -18 l23 -19 0 -312 c0
-294 -1 -314 -19 -331 -10 -11 -32 -21 -48 -24 -63 -11 -32 -16 104 -16 142 0
176 7 89 19 -3 1 -15 10 -27 21 -21 20 -21 25 -20 327 l1 307 23 23 c20 20 42
28 67 24 4 0 7 3 7 7 0 5 -61 9 -135 9 -81 1 -133 -2 -130 -8z"/>
</g>
</svg>
