<?xml version="1.0" standalone="no"?>
<!DOCTYPE svg PUBLIC "-//W3C//DTD SVG 20010904//EN"
 "http://www.w3.org/TR/2001/REC-SVG-20010904/DTD/svg10.dtd">
<svg version="1.0" xmlns="http://www.w3.org/2000/svg"
 width="700.000000pt" height="700.000000pt" viewBox="0 0 700.000000 700.000000"
 preserveAspectRatio="xMidYMid meet">
<metadata>
Created by potrace 1.11, written by Peter Selinger 2001-2013
</metadata>
<g transform="translate(0.000000,700.000000) scale(0.100000,-0.100000)"
fill="#000000" stroke="none">
<path d="M0 3500 l0 -3500 3500 0 3500 0 0 3500 0 3500 -3500 0 -3500 0 0
-3500z m6900 0 l0 -3400 -3400 0 -3400 0 0 3400 0 3400 3400 0 3400 0 0 -3400z"/>
<path d="M3808 5737 l-217 -182 -1 -632 0 -633 -35 0 -35 0 -2 398 -3 397
-277 3 -278 2 0 -245 0 -245 -125 0 -125 0 0 560 0 560 -155 0 -155 0 0 -245
0 -245 -210 0 -210 0 0 -925 0 -924 -62 -3 -63 -3 -3 -47 -3 -48 115 0 116 0
0 925 0 925 210 0 210 0 0 245 0 245 55 0 55 0 0 -560 0 -560 225 0 225 0 0
245 0 245 175 0 175 0 0 -400 0 -400 140 0 140 0 0 658 0 659 170 141 c93 78
172 142 175 142 3 0 146 -124 318 -277 l312 -276 5 -716 5 -716 123 -3 122 -3
0 -259 0 -260 130 0 130 0 0 50 0 50 -80 0 -80 0 0 260 0 260 -120 0 -120 0 0
684 0 685 -367 325 c-203 179 -372 326 -378 326 -5 -1 -108 -83 -227 -183z"/>
<path d="M1301 3065 c-131 -30 -243 -109 -308 -217 -88 -145 -95 -369 -17
-535 35 -74 130 -169 207 -206 203 -99 444 -64 580 83 53 57 56 62 61 127 4
37 9 92 11 121 6 60 -11 72 -20 15 -35 -209 -151 -327 -342 -348 -119 -14
-237 29 -317 115 -85 91 -120 194 -120 350 0 237 106 398 294 446 68 17 159
15 232 -6 85 -25 190 -128 205 -202 3 -15 11 -28 18 -28 9 0 9 21 -2 93 -7 50
-15 97 -18 104 -6 16 -87 57 -155 77 -78 24 -230 29 -309 11z"/>
<path d="M3862 2903 c-22 -74 -343 -748 -369 -775 -14 -15 -39 -30 -54 -33
-66 -15 -21 -25 106 -25 125 0 169 9 111 24 -25 6 -42 37 -37 68 1 9 19 57 40
105 l38 88 175 3 175 2 42 -108 c47 -119 46 -145 -4 -158 -60 -15 -14 -24 125
-24 142 0 191 10 117 24 -19 3 -44 17 -56 30 -12 13 -102 200 -200 417 -98
216 -183 395 -188 396 -5 2 -15 -13 -21 -34z m93 -322 c36 -90 64 -165 62
-167 -2 -3 -69 -3 -149 -2 l-145 3 75 178 c46 109 78 173 83 165 4 -7 37 -87
74 -177z"/>
<path d="M5985 2930 c-16 -4 -141 -8 -277 -9 -229 -1 -297 -9 -216 -25 71 -14
68 1 68 -395 0 -396 0 -394 -65 -407 -90 -17 -13 -24 253 -24 l289 0 38 100
c21 56 35 104 31 107 -7 8 -6 9 -39 -49 -18 -32 -43 -57 -75 -75 -44 -26 -55
-28 -189 -32 l-143 -3 0 176 0 176 129 0 c123 0 131 -1 145 -22 9 -12 16 -30
16 -40 0 -10 5 -18 10 -18 6 0 10 42 10 105 0 63 -4 105 -10 105 -5 0 -10 -8
-10 -18 0 -10 -7 -28 -16 -40 -14 -21 -22 -22 -145 -22 l-129 0 0 176 0 175
160 -3 c103 -2 163 -7 171 -15 6 -6 14 -26 18 -45 4 -18 11 -32 16 -30 13 3
13 155 0 157 -5 2 -23 -1 -40 -5z"/>
<path d="M1980 2911 c0 -5 14 -11 32 -15 18 -3 42 -16 55 -28 l23 -21 0 -352
0 -352 -23 -21 c-13 -12 -37 -25 -55 -28 -73 -15 -23 -24 128 -24 152 0 202
10 124 24 -19 4 -44 16 -55 27 -18 18 -19 36 -19 374 0 338 1 356 19 374 11
11 36 23 55 27 78 14 28 24 -124 24 -88 0 -160 -4 -160 -9z"/>
<path d="M2450 2910 c0 -5 9 -10 19 -10 11 0 33 -11 48 -24 l28 -24 0 -357 0
-357 -28 -24 c-15 -13 -37 -24 -48 -24 -10 0 -19 -4 -19 -10 0 -16 511 -13
591 4 223 48 340 206 326 441 -8 152 -62 251 -175 324 -93 59 -171 71 -474 71
-172 0 -268 -4 -268 -10z m617 -69 c63 -28 136 -102 165 -168 32 -75 37 -230
9 -321 -27 -89 -94 -168 -173 -203 -48 -21 -71 -23 -240 -27 l-188 -4 0 377 0
377 188 -4 c170 -3 192 -6 239 -27z"/>
<path d="M4420 2910 c0 -5 7 -10 15 -10 27 0 63 -22 74 -47 7 -16 11 -136 11
-364 l0 -341 -29 -29 c-16 -16 -39 -29 -50 -29 -12 0 -21 -5 -21 -11 0 -7 87
-9 293 -7 268 4 297 6 357 26 125 42 213 132 251 255 28 89 23 233 -10 319
-26 66 -95 148 -156 183 -91 54 -173 65 -467 65 -172 0 -268 -4 -268 -10z
m621 -71 c71 -33 124 -87 158 -158 24 -51 26 -67 26 -186 0 -121 -2 -134 -27
-186 -36 -72 -89 -125 -158 -158 -52 -24 -65 -26 -237 -29 l-183 -4 0 377 0
377 183 -4 c171 -3 185 -5 238 -29z"/>
<path d="M3448 1899 c-42 -46 -74 -87 -71 -92 5 -9 203 93 203 105 0 4 -13 22
-28 39 l-28 31 -76 -83z"/>
<path d="M350 1840 c0 -5 10 -10 23 -10 13 0 33 -10 45 -23 22 -23 22 -27 22
-388 l0 -366 -23 -21 c-13 -12 -33 -22 -45 -22 -12 0 -22 -4 -22 -10 0 -6 52
-10 135 -10 83 0 135 4 135 10 0 6 -11 10 -25 10 -14 0 -34 9 -45 20 -18 18
-20 33 -20 190 l0 170 245 0 245 0 0 -170 c0 -157 -2 -172 -20 -190 -11 -11
-31 -20 -45 -20 -14 0 -25 -4 -25 -10 0 -6 52 -10 135 -10 83 0 135 4 135 10
0 6 -10 10 -23 10 -13 0 -33 10 -45 23 -22 23 -22 27 -22 384 0 349 1 361 21
387 12 15 30 26 45 26 13 0 24 5 24 10 0 6 -52 10 -135 10 -83 0 -135 -4 -135
-10 0 -5 11 -10 25 -10 14 0 34 -9 45 -20 18 -18 20 -33 20 -195 l0 -175 -245
0 -245 0 0 173 c0 161 1 175 20 195 12 12 32 22 45 22 14 0 25 5 25 10 0 6
-52 10 -135 10 -83 0 -135 -4 -135 -10z"/>
<path d="M1895 1739 c-51 -12 -113 -62 -131 -105 -8 -19 -14 -51 -14 -73 0
-75 24 -105 182 -227 131 -102 148 -118 158 -155 26 -95 -37 -161 -154 -162
-102 -1 -166 52 -166 136 0 26 -4 37 -12 35 -17 -6 -26 -42 -27 -105 -1 -61
13 -75 101 -99 119 -31 220 -11 285 57 39 42 53 77 53 136 0 72 -28 108 -172
218 -152 116 -178 144 -178 189 0 67 65 116 152 116 67 0 116 -28 125 -70 11
-58 23 -41 23 34 l0 76 -34 0 c-18 0 -60 2 -92 5 -32 2 -77 0 -99 -6z"/>
<path d="M2250 1679 c0 -39 4 -69 10 -69 6 0 10 9 10 20 0 11 9 29 20 40 18
18 33 20 140 20 l120 0 0 -311 c0 -350 -3 -368 -67 -369 -13 0 -23 -4 -23 -10
0 -6 50 -10 130 -10 80 0 130 4 130 10 0 6 -10 10 -23 10 -13 0 -32 6 -43 14
-18 14 -19 31 -22 340 l-3 326 121 0 c107 0 122 -2 140 -20 11 -11 20 -29 20
-40 0 -11 5 -20 10 -20 6 0 10 30 10 70 l0 70 -32 -8 c-42 -9 -560 -9 -610 0
l-38 7 0 -70z"/>
<path d="M3296 1739 c-75 -12 -189 -72 -231 -122 -108 -125 -130 -292 -58
-434 96 -190 359 -269 567 -170 91 43 149 100 190 187 28 59 31 74 31 160 0
82 -4 103 -27 152 -55 118 -167 202 -302 227 -67 12 -99 12 -170 0z m230 -72
c60 -31 118 -91 147 -155 31 -69 31 -237 0 -304 -31 -67 -104 -142 -166 -169
-78 -33 -186 -32 -260 4 -67 33 -120 90 -155 166 -22 47 -26 70 -26 146 1 166
74 280 211 331 61 23 186 13 249 -19z"/>
<path d="M5353 1735 c-125 -28 -211 -95 -262 -204 -23 -50 -26 -68 -26 -171 0
-105 2 -120 28 -176 68 -146 215 -223 402 -211 125 8 243 63 296 137 21 30 38
190 20 190 -6 0 -11 -8 -11 -18 0 -97 -93 -217 -190 -246 -69 -21 -203 -21
-262 0 -136 46 -213 207 -187 392 23 168 119 260 281 270 152 9 246 -36 299
-144 18 -35 34 -62 37 -59 3 3 0 43 -7 90 -13 84 -14 86 -50 104 -100 51 -259
71 -368 46z"/>
<path d="M6260 1735 c0 -10 -68 -164 -151 -344 -152 -327 -184 -381 -229 -381
-11 0 -20 -4 -20 -10 0 -6 47 -10 122 -10 120 0 129 3 86 24 -35 17 -33 40 7
137 l38 89 151 0 151 0 38 -94 c32 -77 37 -98 27 -115 -6 -12 -20 -21 -30 -21
-11 0 -20 -4 -20 -10 0 -6 50 -10 130 -10 80 0 130 4 130 10 0 6 -12 10 -26
10 -16 0 -36 11 -51 28 -14 15 -94 180 -178 367 -142 313 -175 376 -175 330z
m74 -298 l65 -157 -135 0 -134 0 16 38 c8 20 39 92 67 159 28 67 52 121 54
119 2 -1 32 -73 67 -159z"/>
<path d="M1320 1720 c0 -5 11 -10 25 -10 14 0 37 -11 50 -25 l25 -24 0 -306
c0 -292 -1 -306 -20 -325 -11 -11 -33 -20 -50 -20 -16 0 -30 -4 -30 -10 0 -6
53 -10 140 -10 87 0 140 4 140 10 0 6 -13 10 -28 10 -17 0 -37 9 -48 21 -18
20 -19 40 -19 331 l0 310 24 19 c13 10 34 19 47 19 13 0 24 5 24 10 0 6 -53
10 -140 10 -87 0 -140 -4 -140 -10z"/>
<path d="M3900 1720 c0 -5 10 -10 23 -10 63 -1 67 -20 67 -357 0 -331 -2 -343
-61 -343 -16 0 -29 -4 -29 -10 0 -6 50 -10 130 -10 80 0 130 4 130 10 0 6 -10
10 -23 10 -13 0 -32 6 -43 14 -18 14 -19 31 -22 335 l-3 321 91 0 c101 0 146
-13 178 -54 46 -59 40 -156 -12 -213 -33 -37 -39 -38 -208 -52 -15 -2 -8 -21
7 -21 39 0 81 -38 161 -148 95 -129 120 -155 179 -183 43 -20 165 -27 165 -9
0 6 -9 10 -20 10 -51 0 -109 53 -233 212 -37 47 -72 88 -78 90 -6 2 15 17 47
34 79 40 117 100 117 182 0 96 -48 158 -145 187 -61 18 -418 22 -418 5z"/>
<path d="M4670 1720 c0 -5 11 -10 24 -10 13 0 35 -9 50 -21 l26 -20 0 -310 c0
-296 -1 -310 -20 -329 -11 -11 -33 -20 -50 -20 -16 0 -30 -4 -30 -10 0 -6 55
-10 146 -10 94 0 143 4 139 10 -3 6 -16 10 -28 10 -13 0 -33 7 -45 16 -22 15
-22 16 -22 333 0 347 -2 335 59 347 73 15 33 24 -103 24 -91 0 -146 -4 -146
-10z"/>
</g>
</svg>
