<?xml version="1.0" encoding="UTF-8" standalone="no"?>
<!DOCTYPE svg PUBLIC "-//W3C//DTD SVG 1.1//EN" "http://www.w3.org/Graphics/SVG/1.1/DTD/svg11.dtd">
<svg width="100%" height="100%" viewBox="0 0 200 200" version="1.1" xmlns="http://www.w3.org/2000/svg" xmlns:xlink="http://www.w3.org/1999/xlink" xml:space="preserve" xmlns:serif="http://www.serif.com/" style="fill-rule:evenodd;clip-rule:evenodd;stroke-miterlimit:1.5;">
    <rect x="0" y="0" width="200" height="200" style="fill:white;"/>
    <path d="M200,200L0,200L0,0L200,0L200,200ZM2.667,197.333L197.333,197.333L197.333,2.667L2.667,2.667L2.667,197.333Z" style="fill:rgb(184,44,51);"/>
    <g transform="matrix(1,0,0,1,-10.1772,-0.810127)">
        <path d="M50.857,142.079C46.644,142.052 43.211,140.706 40.557,138.039C37.904,135.372 36.577,131.859 36.577,127.499C36.577,123.139 37.904,119.626 40.557,116.959C43.211,114.292 46.724,112.959 51.097,112.959C54.671,112.959 57.831,113.866 60.577,115.679L61.377,121.319L61.017,121.319C60.431,119.026 59.244,117.259 57.457,116.019C55.671,114.779 53.551,114.159 51.097,114.159C47.604,114.159 44.811,115.372 42.717,117.799C40.624,120.226 39.577,123.439 39.577,127.439C39.577,131.439 40.611,134.659 42.677,137.099C44.744,139.539 47.471,140.799 50.857,140.879C53.844,140.879 56.337,140.066 58.337,138.439C60.497,136.679 61.804,133.812 62.257,129.839L62.577,129.839L62.097,136.119C59.671,140.092 55.924,142.079 50.857,142.079Z" style="fill-rule:nonzero;"/>
        <path d="M67.337,141.119C68.057,141.119 68.684,140.906 69.217,140.479C69.751,140.052 70.017,139.546 70.017,138.959L70.017,120.079C70.017,119.492 69.751,118.986 69.217,118.559C68.684,118.132 68.044,117.919 67.297,117.919L66.777,117.919L66.777,117.519L75.817,117.519L75.817,117.919L75.297,117.919C74.577,117.919 73.957,118.119 73.437,118.519C72.917,118.919 72.631,119.412 72.577,119.999L72.577,138.999C72.604,139.586 72.884,140.086 73.417,140.499C73.951,140.912 74.577,141.119 75.297,141.119L75.817,141.119L75.857,141.519L66.777,141.519L66.777,141.119L67.337,141.119Z" style="fill-rule:nonzero;"/>
        <path d="M106.417,129.519C106.417,133.226 105.264,136.152 102.957,138.299C100.651,140.446 97.524,141.519 93.577,141.519L80.217,141.519L80.217,141.119L80.737,141.119C81.377,141.119 81.911,140.906 82.337,140.479C82.764,140.052 82.991,139.546 83.017,138.959L83.017,120.079C82.991,119.439 82.757,118.919 82.317,118.519C81.877,118.119 81.337,117.919 80.697,117.919L80.217,117.919L80.217,117.519L93.577,117.519C96.191,117.519 98.464,117.999 100.397,118.959C102.331,119.919 103.817,121.306 104.857,123.119C105.897,124.932 106.417,127.066 106.417,129.519ZM85.617,118.719L85.617,140.319L93.577,140.319C96.644,140.319 99.071,139.352 100.857,137.419C102.644,135.486 103.537,132.852 103.537,129.519C103.537,126.186 102.644,123.552 100.857,121.619C99.071,119.686 96.644,118.719 93.577,118.719L85.617,118.719Z" style="fill-rule:nonzero;"/>
        <path d="M134.217,141.119L134.537,141.119L134.537,141.519L126.337,141.519L126.337,141.119L126.657,141.119C127.164,141.119 127.551,140.946 127.817,140.599C128.084,140.252 128.217,139.926 128.217,139.619C128.217,139.312 128.164,139.012 128.057,138.719L125.857,133.399L115.737,133.399L113.537,138.599C113.404,138.946 113.337,139.272 113.337,139.579C113.337,139.886 113.471,140.219 113.737,140.579C114.004,140.939 114.404,141.119 114.937,141.119L115.257,141.119L115.257,141.519L107.617,141.519L107.617,141.119L107.937,141.119C108.497,141.119 109.064,140.926 109.637,140.539C110.211,140.152 110.684,139.572 111.057,138.799C116.897,126.319 119.937,119.786 120.177,119.199C120.631,118.079 120.871,117.332 120.897,116.959L121.257,116.959L131.137,138.799C131.911,140.346 132.937,141.119 134.217,141.119ZM116.257,132.199L125.377,132.199L120.897,121.239L116.257,132.199Z" style="fill-rule:nonzero;"/>
        <path d="M162.737,129.519C162.737,133.226 161.584,136.152 159.277,138.299C156.971,140.446 153.844,141.519 149.897,141.519L136.537,141.519L136.537,141.119L137.057,141.119C137.697,141.119 138.231,140.906 138.657,140.479C139.084,140.052 139.311,139.546 139.337,138.959L139.337,120.079C139.311,119.439 139.077,118.919 138.637,118.519C138.197,118.119 137.657,117.919 137.017,117.919L136.537,117.919L136.537,117.519L149.897,117.519C152.511,117.519 154.784,117.999 156.717,118.959C158.651,119.919 160.137,121.306 161.177,123.119C162.217,124.932 162.737,127.066 162.737,129.519ZM141.937,118.719L141.937,140.319L149.897,140.319C152.964,140.319 155.391,139.352 157.177,137.419C158.964,135.486 159.857,132.852 159.857,129.519C159.857,126.186 158.964,123.552 157.177,121.619C155.391,119.686 152.964,118.719 149.897,118.719L141.937,118.719Z" style="fill-rule:nonzero;"/>
        <path d="M166.897,141.119C167.537,141.119 168.077,140.912 168.517,140.499C168.957,140.086 169.191,139.586 169.217,138.999L169.217,119.999C169.217,119.412 168.991,118.919 168.537,118.519C168.084,118.119 167.537,117.919 166.897,117.919L166.337,117.919L166.337,117.519L178.017,117.519C179.111,117.519 180.071,117.439 180.897,117.279C181.724,117.119 182.257,116.986 182.497,116.879L182.497,121.439L182.057,121.399L182.057,120.799C182.057,120.239 181.871,119.759 181.497,119.359C181.124,118.959 180.644,118.759 180.057,118.759L171.737,118.759L171.737,128.919L178.577,128.919C179.111,128.919 179.517,128.759 179.797,128.439C180.077,128.119 180.217,127.719 180.217,127.239L180.217,126.719L180.657,126.719L180.657,132.319L180.217,132.319L180.217,131.799C180.217,131.052 179.937,130.546 179.377,130.279C179.164,130.199 178.937,130.146 178.697,130.119L171.737,130.119L171.737,140.279L178.017,140.279C179.244,140.279 180.277,140.066 181.117,139.639C181.957,139.212 182.597,138.706 183.037,138.119C183.477,137.532 183.924,136.759 184.377,135.799L184.777,135.799L182.577,141.519L166.337,141.519L166.337,141.119L166.897,141.119Z" style="fill-rule:nonzero;"/>
    </g>
    <g transform="matrix(0.984901,0,0,0.984901,-5.31814,2.30893)">
        <path d="M32.884,171.644C33.501,171.644 34.029,171.431 34.468,171.004C34.907,170.576 35.138,170.055 35.162,169.438L35.162,160.22L20.606,160.22L20.606,169.402C20.606,170.019 20.832,170.547 21.283,170.986C21.733,171.425 22.267,171.644 22.884,171.644L23.347,171.644L23.347,172L15.553,172L15.553,171.644L16.016,171.644C16.632,171.644 17.16,171.425 17.599,170.986C18.038,170.547 18.27,170.019 18.293,169.402L18.293,149.651C18.27,149.034 18.038,148.512 17.599,148.085C17.16,147.658 16.632,147.444 16.016,147.444L15.553,147.444L15.553,147.089L23.347,147.089L23.347,147.444L22.884,147.444C22.267,147.444 21.739,147.658 21.3,148.085C20.861,148.512 20.63,149.034 20.606,149.651L20.606,159.153L35.162,159.153L35.162,149.651C35.138,148.797 34.758,148.156 34.023,147.729C33.667,147.539 33.288,147.444 32.884,147.444L32.422,147.444L32.422,147.089L40.215,147.089L40.215,147.444L39.753,147.444C39.136,147.444 38.608,147.664 38.169,148.103C37.73,148.542 37.499,149.07 37.475,149.687L37.475,169.402C37.499,170.019 37.73,170.547 38.169,170.986C38.608,171.425 39.136,171.644 39.753,171.644L40.215,171.644L40.215,172L32.422,172L32.422,171.644L32.884,171.644Z" style="fill-rule:nonzero;"/>
        <path d="M44.272,171.644C44.913,171.644 45.47,171.454 45.945,171.075C46.419,170.695 46.657,170.244 46.657,169.722L46.657,152.925C46.657,152.403 46.419,151.952 45.945,151.573C45.47,151.193 44.901,151.003 44.237,151.003L43.774,151.003L43.774,150.647L51.817,150.647L51.817,151.003L51.354,151.003C50.714,151.003 50.162,151.181 49.699,151.537C49.237,151.893 48.982,152.332 48.934,152.854L48.934,169.758C48.958,170.28 49.207,170.725 49.682,171.093C50.156,171.46 50.714,171.644 51.354,171.644L51.817,171.644L51.852,172L43.774,172L43.774,171.644L44.272,171.644Z" style="fill-rule:nonzero;"/>
        <path d="M55.838,170.826C55.767,170.541 55.732,169.96 55.732,169.082C55.732,168.204 55.886,167.314 56.194,166.413L56.621,166.413C56.597,166.626 56.586,166.84 56.586,167.053C56.586,168.334 57.007,169.384 57.849,170.203C58.691,171.021 59.86,171.431 61.354,171.431C62.92,171.431 64.142,171.069 65.02,170.345C65.898,169.622 66.337,168.684 66.337,167.534C66.337,166.383 65.91,165.428 65.055,164.669L57.938,159.188C56.799,158.216 56.23,156.911 56.23,155.274C56.23,154.348 56.485,153.494 56.995,152.711C57.505,151.929 58.217,151.306 59.13,150.843C60.044,150.38 61.117,150.149 62.351,150.149C63.585,150.149 64.676,150.256 65.625,150.469L66.799,150.469L66.87,154.348L66.479,154.348C66.479,153.352 66.135,152.581 65.447,152.035C64.759,151.49 63.774,151.217 62.493,151.217C61.212,151.217 60.156,151.543 59.326,152.195C58.495,152.848 58.08,153.69 58.08,154.722C58.08,155.754 58.543,156.65 59.468,157.409L66.657,162.961C67.748,163.862 68.294,165.12 68.294,166.733C68.294,168.346 67.683,169.711 66.461,170.826C65.239,171.941 63.751,172.498 61.995,172.498C60.832,172.498 59.67,172.356 58.507,172.071C57.345,171.786 56.455,171.371 55.838,170.826Z" style="fill-rule:nonzero;"/>
        <path d="M81.675,151.679L81.675,169.758C81.699,170.493 82.055,171.039 82.743,171.395C83.051,171.561 83.395,171.644 83.775,171.644L84.166,171.644L84.166,172L76.835,172L76.835,171.644L77.262,171.644C77.831,171.644 78.318,171.454 78.721,171.075C79.124,170.695 79.338,170.244 79.362,169.722L79.362,151.679L72.92,151.679C72.375,151.679 71.942,151.857 71.621,152.213C71.301,152.569 71.141,152.996 71.141,153.494L71.141,154.064L70.75,154.064L70.75,150.042C71.224,150.232 71.894,150.375 72.76,150.469C73.626,150.564 74.273,150.612 74.7,150.612L86.301,150.612C88.01,150.612 89.338,150.422 90.287,150.042L90.287,154.064L89.896,154.064L89.896,153.494C89.896,152.996 89.73,152.569 89.397,152.213C89.065,151.857 88.638,151.679 88.116,151.679L81.675,151.679Z" style="fill-rule:nonzero;"/>
        <path d="M103.49,148.37L103.241,148.121C105.068,146.175 106.574,144.621 107.761,143.459C108.401,144.099 108.888,144.728 109.22,145.345C107.701,146.223 105.792,147.231 103.49,148.37ZM97.476,151.555C99.303,150.618 101.313,150.149 103.508,150.149C105.703,150.149 107.713,150.618 109.54,151.555C111.367,152.492 112.82,153.815 113.9,155.523C114.979,157.231 115.519,159.165 115.519,161.324C115.519,163.483 114.979,165.416 113.9,167.124C112.82,168.833 111.367,170.155 109.54,171.093C107.713,172.03 105.703,172.498 103.508,172.498C101.313,172.498 99.303,172.03 97.476,171.093C95.649,170.155 94.196,168.833 93.116,167.124C92.037,165.416 91.497,163.483 91.497,161.324C91.497,159.165 92.037,157.231 93.116,155.523C94.196,153.815 95.649,152.492 97.476,151.555ZM96.818,168.601C98.609,170.488 100.833,171.431 103.49,171.431C106.147,171.431 108.378,170.488 110.181,168.601C111.984,166.715 112.885,164.289 112.885,161.324C112.885,158.358 111.984,155.932 110.181,154.046C108.378,152.16 106.147,151.217 103.49,151.217C100.833,151.217 98.609,152.16 96.818,154.046C95.026,155.932 94.131,158.358 94.131,161.324C94.131,164.289 95.026,166.715 96.818,168.601Z" style="fill-rule:nonzero;"/>
        <path d="M125.341,151.751L123.455,151.751L123.455,169.722C123.479,170.458 123.811,171.015 124.451,171.395C124.76,171.561 125.104,171.644 125.483,171.644L125.946,171.644L125.982,172L118.686,172L118.686,171.644L119.184,171.644C119.73,171.644 120.199,171.46 120.59,171.093C120.982,170.725 121.177,170.28 121.177,169.758L121.177,152.854C121.177,152.332 120.982,151.893 120.59,151.537C120.199,151.181 119.73,151.003 119.184,151.003L118.686,151.003L118.686,150.647L127.619,150.647C129.849,150.647 131.61,151.157 132.903,152.178C134.196,153.198 134.843,154.538 134.843,156.199C134.843,157.86 134.321,159.248 133.277,160.363C132.233,161.478 130.905,162.118 129.291,162.285C130.05,162.617 130.964,163.542 132.032,165.06C132.008,165.06 132.417,165.582 133.259,166.626C134.102,167.67 134.778,168.483 135.288,169.064C135.798,169.645 136.219,170.09 136.551,170.399C137.429,171.229 138.437,171.644 139.576,171.644L139.576,172L138.473,172C136.599,172 135.128,171.632 134.06,170.897C133.253,170.351 132.518,169.675 131.854,168.868C131.711,168.678 131.112,167.842 130.056,166.359C129.001,164.877 128.437,164.088 128.366,163.993C127.085,162.403 125.887,161.608 124.772,161.608L124.772,161.253C127.547,161.253 129.22,161.11 129.79,160.825C130.572,160.422 131.106,159.995 131.391,159.544C131.984,158.595 132.281,157.551 132.281,156.413C132.281,154.965 131.854,153.85 130.999,153.067C130.145,152.284 128.995,151.857 127.547,151.786C126.907,151.762 126.171,151.751 125.341,151.751Z" style="fill-rule:nonzero;"/>
        <path d="M141.498,171.644C142.138,171.644 142.696,171.454 143.17,171.075C143.645,170.695 143.882,170.244 143.882,169.722L143.882,152.925C143.882,152.403 143.645,151.952 143.17,151.573C142.696,151.193 142.127,151.003 141.462,151.003L141,151.003L141,150.647L149.042,150.647L149.042,151.003L148.58,151.003C147.939,151.003 147.388,151.181 146.925,151.537C146.462,151.893 146.207,152.332 146.16,152.854L146.16,169.758C146.184,170.28 146.433,170.725 146.907,171.093C147.382,171.46 147.939,171.644 148.58,171.644L149.042,171.644L149.078,172L141,172L141,171.644L141.498,171.644Z" style="fill-rule:nonzero;"/>
        <path d="M163.989,172.498C160.359,172.475 157.495,171.466 155.395,169.473C153.295,167.48 152.245,164.758 152.245,161.306C152.245,157.854 153.295,155.131 155.395,153.139C157.495,151.146 160.359,150.149 163.989,150.149C165.46,150.149 166.943,150.339 168.438,150.719C169.932,151.098 171.225,151.62 172.317,152.284L173.1,157.338L172.779,157.338C171.759,153.257 168.817,151.217 163.954,151.217C161.13,151.217 158.9,152.118 157.263,153.921C155.626,155.725 154.808,158.192 154.808,161.324C154.808,163.364 155.175,165.138 155.911,166.644C156.646,168.151 157.714,169.319 159.114,170.149C160.514,170.98 162.139,171.395 163.989,171.395C165.84,171.395 167.459,171.116 168.847,170.559C170.235,170.001 171.386,169.082 172.299,167.801C173.212,166.519 173.728,164.93 173.847,163.032L174.167,163.032L173.776,167.907C172.851,169.331 171.51,170.452 169.755,171.27C167.999,172.089 166.077,172.498 163.989,172.498Z" style="fill-rule:nonzero;"/>
        <path d="M199.043,171.644L199.328,171.644L199.328,172L192.032,172L192.032,171.644L192.317,171.644C192.768,171.644 193.112,171.49 193.349,171.181C193.586,170.873 193.705,170.582 193.705,170.31C193.705,170.037 193.658,169.77 193.563,169.509L191.605,164.776L182.602,164.776L180.644,169.402C180.526,169.711 180.466,170.001 180.466,170.274C180.466,170.547 180.585,170.843 180.822,171.164C181.06,171.484 181.415,171.644 181.89,171.644L182.175,171.644L182.175,172L175.377,172L175.377,171.644L175.662,171.644C176.16,171.644 176.664,171.472 177.175,171.128C177.685,170.784 178.106,170.268 178.438,169.58C183.634,158.477 186.338,152.664 186.552,152.142C186.955,151.146 187.169,150.481 187.192,150.149L187.513,150.149L196.303,169.58C196.991,170.956 197.904,171.644 199.043,171.644ZM183.064,163.708L191.178,163.708L187.192,153.957L183.064,163.708Z" style="fill-rule:nonzero;"/>
    </g>
    <g transform="matrix(1,0,0,1,1.38608,0.405063)">
        <path d="M51.614,104.595L56.614,104.595L56.614,51.595L68.614,51.595L68.614,37.595L74.614,37.595L74.614,69.595L84.614,69.595L84.614,55.595L97.614,55.595L97.614,78.595L102.614,78.595L102.614,41.595L113.924,32.152L133.614,49.595L133.614,89.595L140.614,89.595L140.614,104.595L146.614,104.595" style="fill:none;stroke:rgb(184,44,51);stroke-width:2.67px;"/>
    </g>
</svg>
